<svg width="126" height="92" viewBox="0 0 126 92" fill="none" xmlns="http://www.w3.org/2000/svg">
<path d="M44.0625 88C44.0625 88.5833 43.7917 89.0833 43.25 89.5C42.7083 89.9167 42.0625 90.25 41.3125 90.5C40.5625 90.75 39.7917 90.9375 39 91.0625C38.25 91.1875 37.6458 91.25 37.1875 91.25C37.0625 91.25 36.9583 91.2708 36.875 91.3125C36.7917 91.3542 36.6875 91.3333 36.5625 91.25C35.7292 91.0833 35 90.7917 34.375 90.375C33.75 90 33.1875 89.5417 32.6875 89C32.1875 88.5 31.7083 87.9375 31.25 87.3125C30.7917 86.6875 30.3125 86.0417 29.8125 85.375C26.4792 81.1667 23.3333 76.8542 20.375 72.4375C17.4583 67.9792 14.8125 63.2917 12.4375 58.375L11.6875 59.25V83.375C11.6875 83.8333 11.6667 84.3542 11.625 84.9375C11.5833 85.4792 11.4792 86 11.3125 86.5C11.1458 87 10.8958 87.4167 10.5625 87.75C10.2292 88.0833 9.77083 88.25 9.1875 88.25C7.85417 88.25 6.75 88.0417 5.875 87.625C5.04167 87.2083 4.375 86.6458 3.875 85.9375C3.41667 85.1875 3.10417 84.3125 2.9375 83.3125C2.77083 82.3125 2.6875 81.2083 2.6875 80C2.6875 76.0833 2.64583 72.1875 2.5625 68.3125C2.47917 64.4375 2.4375 60.5417 2.4375 56.625C2.4375 54.9167 2.5 53.25 2.625 51.625C2.75 50 2.8125 48.3333 2.8125 46.625C2.8125 40.6667 2.58333 34.75 2.125 28.875C1.66667 22.9583 1.1875 17.0417 0.6875 11.125C0.5625 9.75 0.416667 8.375 0.25 7C0.125 5.625 0.0625 4.25 0.0625 2.875C0.0625 1.875 0.395833 1.20833 1.0625 0.875C1.72917 0.541667 2.4375 0.375 3.1875 0.375C5.52083 0.375 7.35417 0.854167 8.6875 1.8125C10.0208 2.77083 10.6875 4.5 10.6875 7C10.6875 10.7917 10.8125 14.5 11.0625 18.125C11.2708 22.6667 11.3958 27.1667 11.4375 31.625C11.5208 36.0833 11.6042 40.5833 11.6875 45.125C16.1875 39.5 19.7292 33.4583 22.3125 27C24.8958 20.5 26.8542 13.7083 28.1875 6.625C28.2292 6.20833 28.2917 5.6875 28.375 5.0625C28.5 4.4375 28.6458 3.83333 28.8125 3.25C29.0208 2.625 29.2917 2.10417 29.625 1.6875C30 1.22917 30.4792 1 31.0625 1C31.7292 1 32.4167 1.125 33.125 1.375C33.8333 1.58333 34.4583 1.89583 35 2.3125C35.5833 2.72917 36.0417 3.22917 36.375 3.8125C36.75 4.39583 36.9375 5.04167 36.9375 5.75C36.9375 7.58333 36.7083 9.35417 36.25 11.0625C35.8333 12.7708 35.3958 14.5 34.9375 16.25C34.0625 19.7917 33.125 23.0625 32.125 26.0625C31.1667 29.0625 30.0417 31.9583 28.75 34.75C27.5 37.5 26.0417 40.2292 24.375 42.9375C22.7083 45.6042 20.7292 48.375 18.4375 51.25L21.0625 56.5C23.2708 60.7083 25.7292 64.8125 28.4375 68.8125C31.1458 72.7708 34.1042 76.5417 37.3125 80.125C38.3958 81.3333 39.5 82.4583 40.625 83.5C41.7917 84.5 42.8125 85.6667 43.6875 87C43.9375 87.25 44.0625 87.5833 44.0625 88ZM70.75 88.1875C70.75 89.0208 70.5417 89.5833 70.125 89.875C69.7083 90.2083 69.125 90.375 68.375 90.375C66.4167 90.375 65 89.8542 64.125 88.8125C63.2917 87.7708 62.6667 86.3958 62.25 84.6875C62.125 84.1042 62 83.5208 61.875 82.9375C61.75 82.3125 61.6458 81.7083 61.5625 81.125C61.4792 80.5833 61.3958 80.2083 61.3125 80C61.2292 79.7917 61.1458 79.3958 61.0625 78.8125C60.5625 80.0208 59.9375 81.2917 59.1875 82.625C58.4792 83.9167 57.6458 85.125 56.6875 86.25C55.7292 87.3333 54.6458 88.2292 53.4375 88.9375C52.2708 89.6458 50.9792 90 49.5625 90C48.0625 90 46.8125 89.6458 45.8125 88.9375C44.8125 88.1875 44.0208 87.2708 43.4375 86.1875C42.8958 85.0625 42.5 83.8333 42.25 82.5C42.0417 81.1667 41.9375 79.8958 41.9375 78.6875C41.9375 75.8542 42.2083 72.7917 42.75 69.5C43.3333 66.1667 44.125 62.8542 45.125 59.5625C46.125 56.2292 47.2917 53.0417 48.625 50C49.9583 46.9167 51.4167 44.2292 53 41.9375V42L53.375 41.4375C53.8333 40.8125 54.3542 40.1458 54.9375 39.4375C55.5625 38.6875 56.2917 38.3125 57.125 38.3125C57.9167 38.3125 58.6042 38.6667 59.1875 39.375C59.7708 40.0417 60.1875 40.75 60.4375 41.5C61.5208 41.7083 62.3958 41.9792 63.0625 42.3125C63.7292 42.6042 64.25 42.9792 64.625 43.4375C65 43.8958 65.25 44.4375 65.375 45.0625C65.5 45.6458 65.5625 46.2917 65.5625 47C65.5625 47.2917 65.5625 47.6042 65.5625 47.9375C65.5625 48.2708 65.5417 48.6042 65.5 48.9375C65.4583 49.2708 65.4375 49.6667 65.4375 50.125C65.4375 50.5833 65.4375 51 65.4375 51.375C65.4375 51.7917 65.5 52.3333 65.625 53C65.7917 53.6667 65.9583 54.3542 66.125 55.0625L66.5625 57.375C66.7708 58.5833 66.9375 59.9583 67.0625 61.5C67.2292 63.0417 67.4167 64.5833 67.625 66.125C67.7917 67.7083 67.9583 69.25 68.125 70.75C68.2917 72.2083 68.4583 73.5625 68.625 74.8125L70.125 84.0625L70.3125 85.125C70.3958 85.6667 70.4792 86.1667 70.5625 86.625C70.6875 87.0833 70.75 87.6042 70.75 88.1875ZM56.4375 52.25C56.4375 52.1667 56.4167 52.0417 56.375 51.875C56.3333 51.6667 56.2917 51.4583 56.25 51.25C55.2917 53.2917 54.4375 55.5208 53.6875 57.9375C52.9792 60.3125 52.375 62.75 51.875 65.25C51.4167 67.7083 51.0625 70.1875 50.8125 72.6875C50.6042 75.1458 50.5 77.4792 50.5 79.6875C50.5 79.8958 50.5 80.0833 50.5 80.25C50.5 80.4167 50.5208 80.5833 50.5625 80.75V80.8125C51.5625 79.2708 52.4167 77.25 53.125 74.75C53.875 72.2083 54.5 69.5625 55 66.8125C55.5 64.0208 55.8542 61.3333 56.0625 58.75C56.3125 56.125 56.4375 53.9583 56.4375 52.25ZM99 11.3125C99 11.7708 98.7917 12.1667 98.375 12.5C98 12.7917 97.5417 13.0417 97 13.25C96.4583 13.4167 95.9167 13.5417 95.375 13.625C94.8333 13.7083 94.4167 13.75 94.125 13.75C93.1667 13.75 92.2708 13.6042 91.4375 13.3125C90.6042 12.9792 89.7083 12.7917 88.75 12.75C87.375 13.125 86.1458 13.9583 85.0625 15.25C83.9792 16.5417 83.125 18.4167 82.5 20.875C81.875 23.3333 81.5208 26.4167 81.4375 30.125C81.3542 33.8333 81.625 38.3125 82.25 43.5625C84.875 43.0208 87.3125 42.5625 89.5625 42.1875C91.8542 41.7708 93.625 41.5625 94.875 41.5625C95.875 41.5625 96.5625 41.8333 96.9375 42.375C97.3125 42.9167 97.5 43.6042 97.5 44.4375C97.5 45.2708 97.4167 46.0417 97.25 46.75C97.0833 47.4583 96.6458 48.0417 95.9375 48.5L82.875 50.5C83.0833 52.25 83.25 54.0208 83.375 55.8125C83.5417 57.5625 83.7083 59.2917 83.875 61C84.5417 66.4167 85.1042 70.8542 85.5625 74.3125C86.0625 77.7708 86.4583 80.5417 86.75 82.625C87.0833 84.6667 87.3333 86.1458 87.5 87.0625C87.7083 87.9375 87.8542 88.5417 87.9375 88.875C88.0208 89.1667 88.0625 89.2917 88.0625 89.25C88.1042 89.2083 88.125 89.25 88.125 89.375C88.125 90.25 87.8542 90.8542 87.3125 91.1875C86.7708 91.5625 86.125 91.75 85.375 91.75C84.7917 91.75 84.1667 91.6875 83.5 91.5625C82.875 91.4792 82.25 91.3333 81.625 91.125C81 90.9167 80.4375 90.625 79.9375 90.25C79.4375 89.875 79.0833 89.4167 78.875 88.875C78.5417 86.0417 78.1458 83.3333 77.6875 80.75C77.2292 78.1667 76.8333 75.4792 76.5 72.6875C76.1667 69.3958 75.7917 65.8958 75.375 62.1875C75 58.4792 74.6875 54.9375 74.4375 51.5625C74.2708 51.6042 74.1042 51.625 73.9375 51.625C73.7708 51.5833 73.5833 51.5625 73.375 51.5625C72.7083 51.5625 72.1458 51.4167 71.6875 51.125C71.2708 50.7917 71.0625 50.2083 71.0625 49.375C71.0625 48.4167 71.2917 47.5417 71.75 46.75C72.25 45.9583 72.9792 45.4375 73.9375 45.1875C73.8125 42.8958 73.6667 40.3542 73.5 37.5625C73.3333 34.7708 73.2708 31.9375 73.3125 29.0625C73.3542 26.1458 73.5833 23.3333 74 20.625C74.4583 17.875 75.25 15.4583 76.375 13.375C77.5 11.25 79.0417 9.54167 81 8.25C82.9583 6.95833 85.4792 6.3125 88.5625 6.3125C89.1875 6.3125 90.0625 6.41667 91.1875 6.625C92.3542 6.83333 93.5208 7.16667 94.6875 7.625C95.8542 8.04167 96.8542 8.5625 97.6875 9.1875C98.5625 9.8125 99 10.5208 99 11.3125ZM122.75 77.5625C122.75 78.8125 122.396 80.1042 121.688 81.4375C121.021 82.7708 120.146 84 119.062 85.125C117.979 86.2083 116.729 87.1042 115.312 87.8125C113.938 88.5208 112.562 88.875 111.188 88.875C109.229 88.875 107.542 88.5 106.125 87.75C104.708 86.9583 103.479 85.9167 102.438 84.625C101.396 83.2917 100.542 81.7917 99.875 80.125C99.25 78.4583 98.75 76.75 98.375 75C98 73.2083 97.7292 71.4375 97.5625 69.6875C97.4375 67.8958 97.375 66.2708 97.375 64.8125C97.375 63.5625 97.4375 62.0833 97.5625 60.375C97.7292 58.6667 97.9792 56.8958 98.3125 55.0625C98.6875 53.2292 99.1875 51.4167 99.8125 49.625C100.438 47.8333 101.208 46.2292 102.125 44.8125C103.083 43.3958 104.208 42.25 105.5 41.375C106.833 40.5 108.354 40.0625 110.062 40.0625C111.396 40.0625 112.583 40.3333 113.625 40.875C114.708 41.4167 115.604 42.1458 116.312 43.0625C117.062 43.9375 117.625 44.9583 118 46.125C118.417 47.2917 118.625 48.5 118.625 49.75C118.625 51.375 118.25 53.1458 117.5 55.0625C116.75 56.9792 115.771 58.8333 114.562 60.625C113.396 62.4167 112.062 64.0417 110.562 65.5C109.104 66.9167 107.646 68 106.188 68.75C106.271 69.5 106.438 70.6042 106.688 72.0625C106.938 73.4792 107.271 74.8958 107.688 76.3125C108.146 77.7292 108.667 78.9583 109.25 80C109.875 81.0417 110.604 81.5625 111.438 81.5625C111.854 81.5625 112.208 81.4375 112.5 81.1875C112.833 80.9375 113.125 80.6042 113.375 80.1875C113.625 79.7708 113.833 79.3125 114 78.8125C114.208 78.3125 114.396 77.8333 114.562 77.375L114.938 76.5C115.021 76.375 115.062 76.2917 115.062 76.25C115.104 76.2083 115.146 76.1458 115.188 76.0625C115.479 75.5208 115.75 75.0208 116 74.5625C116.292 74.1042 116.688 73.7083 117.188 73.375H117.125C117.292 73.2083 117.458 73.125 117.625 73.125C117.833 73.0833 118.021 73.0625 118.188 73.0625C118.646 73.0625 119.146 73.2083 119.688 73.5C120.229 73.7917 120.729 74.1667 121.188 74.625C121.646 75.0417 122.021 75.5208 122.312 76.0625C122.604 76.5625 122.75 77.0625 122.75 77.5625ZM110.375 50C110.375 49.5833 110.354 49.1458 110.312 48.6875C110.271 48.2292 110.167 47.8333 110 47.5C109.417 48.2083 108.896 49.0625 108.438 50.0625C108.021 51.0208 107.667 52.0417 107.375 53.125C107.083 54.1667 106.833 55.2292 106.625 56.3125C106.458 57.3958 106.333 58.3958 106.25 59.3125C107.333 58.0208 108.292 56.5625 109.125 54.9375C109.958 53.2708 110.375 51.625 110.375 50ZM107.5 34.0625C107.5 33.6458 107.667 33.1875 108 32.6875C108.375 32.1875 108.792 31.7083 109.25 31.25C109.75 30.7917 110.25 30.375 110.75 30C111.25 29.5833 111.667 29.2292 112 28.9375L118.125 23.3125C118.625 22.9375 119.146 22.5208 119.688 22.0625C120.271 21.5625 120.875 21.3125 121.5 21.3125C121.917 21.3125 122.375 21.4792 122.875 21.8125C123.417 22.1042 123.896 22.4792 124.312 22.9375C124.771 23.3542 125.146 23.8333 125.438 24.375C125.729 24.9167 125.875 25.3958 125.875 25.8125C125.875 25.8958 125.875 25.9792 125.875 26.0625C125.875 26.1458 125.833 26.2292 125.75 26.3125C125.625 26.8125 125.375 27.25 125 27.625C124.625 28 124.208 28.3542 123.75 28.6875C122.458 29.7292 121.458 30.5208 120.75 31.0625C120.083 31.5625 119.458 32.0417 118.875 32.5C118.292 32.9167 117.625 33.375 116.875 33.875C116.167 34.375 115.167 35.1042 113.875 36.0625C113.417 36.3958 112.958 36.6667 112.5 36.875C112.083 37.0833 111.625 37.1875 111.125 37.1875C110.75 37.1875 110.354 37.1042 109.938 36.9375C109.521 36.7708 109.125 36.5417 108.75 36.25C108.375 35.9583 108.062 35.625 107.812 35.25C107.604 34.875 107.5 34.4792 107.5 34.0625Z" fill="#8C6B67"/>
</svg>
